/* XPM */
static char *_8874deb124a453fb8e75c706fce3b5b5QopKfgzayNbF7qE[] = {
/* columns rows colors chars-per-pixel */
"24 24 4 1 ",
"  c #FEE481",
". c #F4B41B",
"X c #CB815E",
"o c white",
/* pixels */
"                        ",
"........................",
"........................",
"XXXX......XXXX......XXXX",
"XXXX......XXXX......XXXX",
"XXXX....XXooooXX....XXXX",
"XXXX....XXooooXX....XXXX",
"........oooooooo........",
"........oooooooo........",
"........oooooooo........",
"........oooooooo........",
"..........oooo..........",
"..........oooo..........",
"..........oooo..........",
"..........oooo..........",
"..........XXXX..........",
"..........XXXX..........",
"..........oooo..........",
"..........oooo..........",
"XXXX......oooo......XXXX",
"XXXX......oooo......XXXX",
"XXXX................XXXX",
"XXXX................XXXX",
"........................"
};
