/* XPM */
static char *_fec588f4729423dbce4a860e7b6ea6fuLAFUMcMiUBCbgxo[] = {
/* columns rows colors chars-per-pixel */
"24 24 5 1 ",
"  c #6F3E43",
". c #B97A57",
"X c #F4B41B",
"o c #CB815E",
"O c #FEE481",
/* pixels */
"........................",
"........................",
"........................",
"....                ....",
"...                  ...",
"...  OOOOOOOOOOOOOO  ...",
"...  OOOOOOOOOOOOOO  ...",
"...  XXXXXXXXXXXXXX  ...",
"...  XooXXXXXXXXooX  ...",
"...  XooXXXXXXXXooX  ...",
"...  XXXXXX  XXXXXX  ...",
"...  XXXXX    XXXXX  ...",
"...  XXXXX    XXXXX  ...",
"...  XXXXXX  XXXXXX  ...",
"...  XXXXX    XXXXX  ...",
"...  XXXXX    XXXXX  ...",
"...  XooXXXXXXXXooX  ...",
"...  XooXXXXXXXXooX  ...",
"...  XXXXXXXXXXXXXX  ...",
"...                  ...",
"....                ....",
"........................",
"........................",
"........................"
};
