/* XPM */
static char *e9476eea58844214e49ac63f34da5a04BdCVeLRyWzW9cHXg[] = {
/* columns rows colors chars-per-pixel */
"48 48 74 1 ",
"  c #B0905D",
". c #9E7E57",
"X c #677A43",
"o c #98A154",
"O c #83924C",
"+ c #869450",
"@ c #8F9C5D",
"# c #919E60",
"$ c #8C9A59",
"% c #84934D",
"& c #869551",
"* c #8F9D5D",
"= c #8D9B5A",
"- c #84934E",
"; c #889653",
": c #9CA870",
"> c #99A56C",
", c #899754",
"< c #85934E",
"1 c #98A56B",
"2 c #8C9A5A",
"3 c #9BA76F",
"4 c #909D5F",
"5 c #C0C7A3",
"6 c white",
"7 c #9FAB74",
"8 c #929F62",
"9 c #C6CDAC",
"0 c #AAB484",
"q c #A8B06F",
"w c #D5DAC3",
"e c #C7CEAF",
"r c #9DA971",
"t c #98A46A",
"y c #8E9B5B",
"u c #8E9C5C",
"i c #899855",
"p c #97A368",
"a c #B5BE94",
"s c #BDC5A0",
"d c #A7B180",
"f c #A3AE7A",
"g c #EFF1E7",
"h c #F8F9F5",
"j c #F6F7F3",
"k c #A2AE79",
"l c #A9B483",
"z c #F0F2EA",
"x c #FEFEFE",
"c c #DDE1CE",
"v c #C6CDAD",
"b c #D8DDC7",
"n c #ADB789",
"m c #C7CEAE",
"M c #CBD1B4",
"N c #D9DEC9",
"B c #B9C29A",
"V c #AFB98B",
"C c #A8B382",
"Z c #C4CBAA",
"A c #C9CFB1",
"S c #A5B07D",
"D c #C8CFB0",
"F c #C5CCAC",
"G c #D9DDC8",
"H c #A4AF7B",
"J c #B0B98C",
"K c #F7F8F4",
"L c #F4F5EF",
"P c #92A062",
"I c #94A164",
"U c #919F61",
"Y c #8F9D5E",
"T c black",
/* pixels */
"                                                ",
"                                                ",
"                 ..       ..                    ",
"              ...XX.   ...XX. .. ..             ",
"           ...XXXooX...XXXooX.XX.XX.            ",
"          .XXXooXooXXXXooXoooXooXooX.           ",
"         .XooXooOXoXooXooOXooOooOooXX...        ",
"        .XXooOOoOOOOooOoOooOOOOoOoXooXXX.       ",
"       .XooXoOOOOOOOoOOOOooOOOOOOOOooXooX.      ",
"      .XXooOOOOOOOOOOOOOOOoOOOOOOOOoOoooX.      ",
"     .XooXoOOOOOOOOOOOOOOOOOOOOOOOOOOOOXX.      ",
"     .XoooOOOOOOOOOOOOOOOOOOOOOOOOOOOOoooX.     ",
"     .XXXOOOOOOOOOOOOOOOOOOOOOOOOOOOOOOooX.     ",
"    .XoooOOOOOOOOOOOOOOOOOOOOOOOOOOOOOOOX.      ",
"    .XooXOOOOOOOOOOOOOOOOOOOOOOOOOOOOOoooX      ",
"     .XXOOOOO+@#####$%OOOOOO&*##=-OOOOOooX      ",
"    .XoooOOO;::::::::>%OOOO,::::::<OOOOXX.      ",
"    .XooOOOO1:::::::::2OOOO3::::::4ooOOooX.     ",
"    .XXOOOOO::566667::8OOOO::960::qooOoooX.     ",
"   .XooOOOOO::56weer::ty#ui::960::pOOOOXX.      ",
"   .XoooOOOO::56a::::::::::::960::pOOoooX.      ",
"    .XXOOOOO::56a::::::::::::960::pOOOooX.      ",
"    XooOOOOO::56sdf:e6ghjklzx660::pOOOOXXX.     ",
"  .XXoooOOOO::5666c:e6vb6nm6MN60::pOOOOoooX     ",
"  XooXOOOOOO::56MBV:e6CZ6nA6S960::pOOOOOooX     ",
"  XoooOoooOO::56a:::e6CZ6nA6S960::pOoooOXX.     ",
"  .XXOOooOOO::56a:::e6CZ6nA6S960::pOOooXooX.    ",
"  .XoooOOOOO::56wee7e6CZ6nD6FG60::pOOOOoooX.    ",
"  .XooOOOOOO::56666He6CZ6nJhKL60::pOOOOooX.     ",
"   .XXoooOOO::::::::::::::::::::::pOOOOOX.      ",
"    .XooOOOO1:::::::::::::::::::::4OOOOooX.     ",
"     .XXOOOO;:::::::::::::::::::::<OOOoooX.     ",
"    .XoooOOOO+@####PIU#@##YY#*##=-OOOOOXX.      ",
"    .XooOOOOOOOOOOOOOOOOOOOOOOOOOOOOOOoooX.     ",
"    .XXOOOOOOOOOOOOOOOOOOOOOOOOOOOOOOOOooX.     ",
"   .XooOOOOOOOOOOOOOOOOOOOOOOOOOOOOOOOOXX.      ",
"   .XoooOOOOOOOOOOOOOOOOOOOOOOOOOOOOOOoooX.     ",
"    .XXXOOOOOOOOOOOoOOOOOOOOOOOOOOOOooXooX.     ",
"     .XoooOOOOOOOOOooOOOOOoOOOOOOOOOoooXX.      ",
"     .XooXooOOOOOOOooOOOOooOOOOOOOOOOooX.       ",
"      .XXoooOOOoOOOOOOOoOooOOOOoOOOOoXX.        ",
"       .XooXoOooXoXOOoOooOXooOooOoOOooX.        ",
"        .XXooXooXooXooXooXoooXooXooXooX.        ",
"         .XooXXXXooXooXXXXooX.XXXooXXX.         ",
"          .XX....XX.XX....XX. ...XX...          ",
"           ..    .. ..    ..    ...             ",
"                                                ",
"                                                "
};
