/* XPM */
static char *_a4080ae1ab34ac287d4757f74046640ZCOSsaR3eJ2HyBEy[] = {
/* columns rows colors chars-per-pixel */
"17 16 8 1 ",
"  c None",
". c #F3F4E7",
"X c #5F7A79",
"o c #C2E09A",
"O c #97BB8E",
"+ c #6E967C",
"@ c #505E77",
"# c white",
/* pixels */
"         ....    ",
"        .XXX.    ",
"  .... .XoOX...  ",
"  .XXX.XoOOXXXX. ",
"  .XooXXoOOXooOX.",
"  .XoOO+OOXOOOOX.",
"   .X+O+OO+OO++..",
"  .XXX++OO+O++@. ",
" .XooO++O++++ooX.",
" .XOOO++++++OOO@.",
" .@@@++++++++@@@.",
" ....@++++++@....",
"    .@++@+++@.   ",
"     .@@.@.@.    ",
"      .. . .     ",
"                 "
};
