/* XPM */
static char *b862d322c9464d36eb0ae57c2ca63f7eB0lSHNf9f60nFlYe[] = {
/* columns rows colors chars-per-pixel */
"24 24 24 1 ",
"  c #346547",
". c #434A5F",
"X c #34995E",
"o c #5AD28C",
"O c #86F6BB",
"+ c #BEDEF1",
"@ c #DBF6E7",
"# c #D5F2EE",
"$ c #DEF3EE",
"% c #DFFAEB",
"& c #D7F6F1",
"* c #DDF6F2",
"= c #DEF6F6",
"- c #DFFAF1",
"; c #DEF9F4",
": c #DDFCF6",
"> c #DEF6F8",
", c #E1F5F6",
"< c #E1FAF6",
"1 c #E1FCF7",
"2 c #E0F3FA",
"3 c #E0F5FA",
"4 c #E5F7FB",
"5 c white",
/* pixels */
";;;;;;++++++++++++;;;;;$",
";;;;+++5555555555+++;;;;",
";;;++55++++++++++55++;;:",
";;;+5++++++++++++++5+;;&",
";;++5++++++++++++++5++;&",
";;+5+++          +++5+;<",
";;+5++            ++5+;,",
";;+5+   OOOOOOOO   +5+;2",
";;+5+  OOOOOOOOOO  +5+;2",
";;+5+  OooooooooO  +5+;3",
";;+5+  oooooooooo  +5+;>",
";;+5+  oooooooooo  +5+;>",
";;+5+  o..oo..ooo  +5+;=",
";;+5++ o..oo..ooo ++5+;4",
";;++5+ oooooooooo +5++;4",
";;;+5+++oo..oooo+++5+;;=",
";;;++55++++++++++55++;;#",
";;;;+++5555555555+++;;;1",
";;;;; ++++++++++++ ;;;;-",
";;;;;  XooooooooX  ;;;;%",
";;;;; ooX      Xoo ;;;;@",
";;;;; oo        oo ;;;;*",
";;;;;    ;;;;;;    ;;;;=",
";;;;;;;;;;;;;;;;;;;;;;;;"
};
