/* XPM */
static char *_65127b4e6ed44318e21d1424a01f5f5PTUlnUVjL2DSChqv[] = {
/* columns rows colors chars-per-pixel */
"42 15 4 1 ",
"  c #B0905D",
". c #A6845D",
"X c #BD9964",
"o c white",
/* pixels */
"                                          ",
"               .                          ",
".  X               ..          .          ",
".                  ..                     ",
"       ..                X  ..        XX  ",
"       ..                   ..        XX  ",
"              XX                          ",
"     X        XX                          ",
"                                          ",
"X                                   .     ",
"X                             X           ",
"    ..                                    ",
"    ..   ..          X                    ",
"  .      ..                   ..    XX    ",
"                              ..    XX    "
};
