/* XPM */
static char *_b34e1e9610e48649285124e1bedf960PZ0kf0lT0ksha3wk[] = {
/* columns rows colors chars-per-pixel */
"17 16 8 1 ",
"  c None",
". c #575E55",
"X c #7A8A75",
"o c #707F6F",
"O c #677366",
"+ c #4F544B",
"@ c #494C43",
"# c white",
/* pixels */
"                 ",
"                 ",
"                 ",
"                 ",
"        ....     ",
"      ..XXoo.    ",
"   ...XoooOOo.   ",
"  .ooOOOoooOO..  ",
" .XoooO.OOOO.o.  ",
" .XooooO..O+XoO@ ",
" @Xooooooo++oooO@",
" @OXooooooo+OoOO@",
" @OOOOXXooOO+OO.@",
" @.OOOOOOOOO+..@ ",
"  @.OOOOOO..+.@  ",
"   @........+@   "
};
