/* XPM */
static char *_2c4b58dbf9e4b6bb1a6b396315bf2cbrE1ShADJpNgp35QF[] = {
/* columns rows colors chars-per-pixel */
"24 24 4 1 ",
"  c #6F3E43",
". c #F4B41B",
"X c #CB815E",
"o c #FEE481",
/* pixels */
"XXXXXXXXXXXXXXXXXXXXXXXX",
"XXXXXXXXXXXXXXXXXXXXXXXX",
"XXXXXXXXXXXXXXXXXXXXXXXX",
"XXXX                XXXX",
"XXX                  XXX",
"XXX  oooooooooooooo  XXX",
"XXX  oooooooooooooo  XXX",
"XXX  ..............  XXX",
"XXX  .XX........XX.  XXX",
"XXX  .XX........XX.  XXX",
"XXX  ......  ......  XXX",
"XXX  .....    .....  XXX",
"XXX  .....    .....  XXX",
"XXX  ......  ......  XXX",
"XXX  .....    .....  XXX",
"XXX  .....    .....  XXX",
"XXX  .XX........XX.  XXX",
"XXX  .XX........XX.  XXX",
"XXX  ..............  XXX",
"XXX                  XXX",
"XXXX                XXXX",
"XXXXXXXXXXXXXXXXXXXXXXXX",
"XXXXXXXXXXXXXXXXXXXXXXXX",
"XXXXXXXXXXXXXXXXXXXXXXXX"
};
