/* XPM */
static char *af1254effa5f4256d1630f105597192beUkPLYQV2tyJ5Xu9[] = {
/* columns rows colors chars-per-pixel */
"24 24 4 1 ",
"  c #CB815E",
". c #9F5A52",
"X c #F4AC66",
"o c white",
/* pixels */
"                        ",
"                        ",
"              ..        ",
"              ..        ",
"....                    ",
"....                    ",
"....      ....          ",
"....      ....          ",
"          ....    XX    ",
"          ....    XX    ",
"                        ",
"                        ",
"      ..                ",
"      ..                ",
"                    XXXX",
"                    XXXX",
"        ....        XXXX",
"        ....        XXXX",
"        ....            ",
"        ....            ",
"                ..      ",
"                ..      ",
"                        ",
"                        "
};
